<?xml version="1.0" encoding="UTF-8" standalone="no"?>
<!-- Created with Inkscape (http://www.inkscape.org/) -->

<svg
   xmlns:dc="http://purl.org/dc/elements/1.1/"
   xmlns:cc="http://creativecommons.org/ns#"
   xmlns:rdf="http://www.w3.org/1999/02/22-rdf-syntax-ns#"
   xmlns:svg="http://www.w3.org/2000/svg"
   xmlns="http://www.w3.org/2000/svg"
   xmlns:sodipodi="http://sodipodi.sourceforge.net/DTD/sodipodi-0.dtd"
   xmlns:inkscape="http://www.inkscape.org/namespaces/inkscape"
   id="svg2"
   version="1.1"
   inkscape:version="0.48.2 r9819"
   width="421"
   height="296"
   xml:space="preserve"
   sodipodi:docname="Davisson-Germer experiment.svg"><metadata
     id="metadata8"><rdf:RDF><cc:Work
         rdf:about=""><dc:format>image/svg+xml</dc:format><dc:type
           rdf:resource="http://purl.org/dc/dcmitype/StillImage" /></cc:Work></rdf:RDF></metadata><defs
     id="defs6"><marker
       inkscape:stockid="Arrow1Mend"
       orient="auto"
       refY="0"
       refX="0"
       id="Arrow1Mend"
       style="overflow:visible"><path
         id="path6534"
         d="M 0,0 5,-5 -12.5,0 5,5 0,0 z"
         style="fill-rule:evenodd;stroke:#000000;stroke-width:1pt;marker-start:none"
         transform="matrix(-0.4,0,0,-0.4,-4,0)"
         inkscape:connector-curvature="0" /></marker><marker
       inkscape:stockid="Arrow2Mstart"
       orient="auto"
       refY="0"
       refX="0"
       id="Arrow2Mstart"
       style="overflow:visible"><path
         id="path6549"
         style="font-size:12px;fill-rule:evenodd;stroke-width:0.625;stroke-linejoin:round"
         d="M 8.7185878,4.0337352 -2.2072895,0.01601326 8.7185884,-4.0017078 c -1.7454984,2.3720609 -1.7354408,5.6174519 -6e-7,8.035443 z"
         transform="scale(0.6,0.6)"
         inkscape:connector-curvature="0" /></marker><marker
       inkscape:stockid="Arrow1Lstart"
       orient="auto"
       refY="0"
       refX="0"
       id="Arrow1Lstart"
       style="overflow:visible"><path
         id="path6525"
         d="M 0,0 5,-5 -12.5,0 5,5 0,0 z"
         style="fill-rule:evenodd;stroke:#000000;stroke-width:1pt;marker-start:none"
         transform="matrix(0.8,0,0,0.8,10,0)"
         inkscape:connector-curvature="0" /></marker><marker
       inkscape:stockid="Arrow1Lend"
       orient="auto"
       refY="0"
       refX="0"
       id="Arrow1Lend"
       style="overflow:visible"><path
         id="path6528"
         d="M 0,0 5,-5 -12.5,0 5,5 0,0 z"
         style="fill-rule:evenodd;stroke:#000000;stroke-width:1pt;marker-start:none"
         transform="matrix(-0.8,0,0,-0.8,-10,0)"
         inkscape:connector-curvature="0" /></marker><clipPath
       clipPathUnits="userSpaceOnUse"
       id="clipPath72"><path
         d="m 774.797,6890.8 532.793,0 0,-292.8 -532.793,0 0,292.8 z"
         id="path74"
         inkscape:connector-curvature="0" /></clipPath><clipPath
       clipPathUnits="userSpaceOnUse"
       id="clipPath84"><path
         d="m 951.195,6874 356.395,0 0,-114 -356.395,0 0,114 z"
         id="path86"
         inkscape:connector-curvature="0" /></clipPath><clipPath
       clipPathUnits="userSpaceOnUse"
       id="clipPath98"><path
         d="m 958.395,6730 349.195,0 0,-114 -349.195,0 0,114 z"
         id="path100"
         inkscape:connector-curvature="0" /></clipPath><clipPath
       clipPathUnits="userSpaceOnUse"
       id="clipPath112"><path
         d="m 774.797,6890.8 532.793,0 0,-292.8 -532.793,0 0,292.8 z"
         id="path114"
         inkscape:connector-curvature="0" /></clipPath><clipPath
       clipPathUnits="userSpaceOnUse"
       id="clipPath254"><path
         d="m 2440.4,6083.2 487.2,0 0,-292.8 -487.2,0 0,292.8 z"
         id="path256"
         inkscape:connector-curvature="0" /></clipPath><clipPath
       clipPathUnits="userSpaceOnUse"
       id="clipPath276"><path
         d="m 2747.6,6067.6 180,0 0,-114 -180,0 0,114 z"
         id="path278"
         inkscape:connector-curvature="0" /></clipPath><clipPath
       clipPathUnits="userSpaceOnUse"
       id="clipPath290"><path
         d="m 2770.4,5922.4 157.2,0 0,-114 -157.2,0 0,114 z"
         id="path292"
         inkscape:connector-curvature="0" /></clipPath><clipPath
       clipPathUnits="userSpaceOnUse"
       id="clipPath304"><path
         d="m 2440.4,6083.2 487.2,0 0,-292.8 -487.2,0 0,292.8 z"
         id="path306"
         inkscape:connector-curvature="0" /></clipPath><clipPath
       clipPathUnits="userSpaceOnUse"
       id="clipPath320"><path
         d="m 2457.2,6071.2 470.4,0 0,-122.4 -470.4,0 0,122.4 z"
         id="path322"
         inkscape:connector-curvature="0" /></clipPath><clipPath
       clipPathUnits="userSpaceOnUse"
       id="clipPath334"><path
         d="m 2457.2,5987.2 470.4,0 0,-122.4 -470.4,0 0,122.4 z"
         id="path336"
         inkscape:connector-curvature="0" /></clipPath><clipPath
       clipPathUnits="userSpaceOnUse"
       id="clipPath348"><path
         d="m 2457.2,5944 470.4,0 0,-122.4 -470.4,0 0,122.4 z"
         id="path350"
         inkscape:connector-curvature="0" /></clipPath><clipPath
       clipPathUnits="userSpaceOnUse"
       id="clipPath362"><path
         d="m 2440.4,6083.2 487.2,0 0,-292.8 -487.2,0 0,292.8 z"
         id="path364"
         inkscape:connector-curvature="0" /></clipPath><clipPath
       clipPathUnits="userSpaceOnUse"
       id="clipPath474"><path
         d="m 1460,4702 370.8,0 0,-262.8 -370.8,0 0,262.8 z"
         id="path476"
         inkscape:connector-curvature="0" /></clipPath><clipPath
       clipPathUnits="userSpaceOnUse"
       id="clipPath500"><path
         d="m 1541.6,4696 289.2,0 0,-110.4 -289.2,0 0,110.4 z"
         id="path502"
         inkscape:connector-curvature="0" /></clipPath><clipPath
       clipPathUnits="userSpaceOnUse"
       id="clipPath514"><path
         d="m 1664,4552 166.8,0 0,-108 -166.8,0 0,108 z"
         id="path516"
         inkscape:connector-curvature="0" /></clipPath><clipPath
       clipPathUnits="userSpaceOnUse"
       id="clipPath528"><path
         d="m 1460,4702 370.8,0 0,-262.8 -370.8,0 0,262.8 z"
         id="path530"
         inkscape:connector-curvature="0" /></clipPath><clipPath
       clipPathUnits="userSpaceOnUse"
       id="clipPath554"><path
         d="m 1136,4386.4 372,0 0,-262.8 -372,0 0,262.8 z"
         id="path556"
         inkscape:connector-curvature="0" /></clipPath><clipPath
       clipPathUnits="userSpaceOnUse"
       id="clipPath580"><path
         d="m 1217.6,4380.4 290.4,0 0,-110.4 -290.4,0 0,110.4 z"
         id="path582"
         inkscape:connector-curvature="0" /></clipPath><clipPath
       clipPathUnits="userSpaceOnUse"
       id="clipPath594"><path
         d="m 1288.4,4238.8 219.6,0 0,-110.4 -219.6,0 0,110.4 z"
         id="path596"
         inkscape:connector-curvature="0" /></clipPath><clipPath
       clipPathUnits="userSpaceOnUse"
       id="clipPath608"><path
         d="m 1136,4386.4 372,0 0,-262.8 -372,0 0,262.8 z"
         id="path610"
         inkscape:connector-curvature="0" /></clipPath><clipPath
       clipPathUnits="userSpaceOnUse"
       id="clipPath710"><path
         d="m 2394.8,3001.6 2940,0 0,-1890 -2940,0 0,1890 z"
         id="path712"
         inkscape:connector-curvature="0" /></clipPath></defs><sodipodi:namedview
     pagecolor="#ffffff"
     bordercolor="#666666"
     borderopacity="1"
     objecttolerance="10"
     gridtolerance="10"
     guidetolerance="10"
     inkscape:pageopacity="0"
     inkscape:pageshadow="2"
     inkscape:window-width="1366"
     inkscape:window-height="706"
     id="namedview4"
     showgrid="true"
     inkscape:zoom="1"
     inkscape:cx="407.95978"
     inkscape:cy="214.8371"
     inkscape:window-x="-8"
     inkscape:window-y="32"
     inkscape:window-maximized="1"
     inkscape:current-layer="g10"
     fit-margin-top="10"
     fit-margin-left="10"
     fit-margin-right="10"
     fit-margin-bottom="10"><inkscape:grid
       type="xygrid"
       id="grid4221"
       empspacing="5"
       visible="true"
       enabled="true"
       snapvisiblegridlinesonly="true" /></sodipodi:namedview><g
     id="g10"
     inkscape:groupmode="layer"
     inkscape:label="leph203"
     transform="matrix(1.25,0,0,-1.25,-269.5,660.5)"><text
       transform="scale(1,-1)"
       id="text326"
       x="245.72"
       y="-597.03998"><tspan
         style="font-size:10.09640026px;font-variant:normal;font-weight:normal;writing-mode:lr-tb;fill:#000000;fill-opacity:1;fill-rule:nonzero;stroke:none;font-family:TT107t00;-inkscape-font-specification:TT107t00"
         x="245.72 262.88702 269.48419 286.05115"
         y="-597.03998"
         sodipodi:role="line"
         id="tspan328"></tspan></text>
<text
       transform="scale(1,-1)"
       id="text340"
       x="245.72"
       y="-588.64001"><tspan
         style="font-size:10.09640026px;font-variant:normal;font-weight:normal;writing-mode:lr-tb;fill:#000000;fill-opacity:1;fill-rule:nonzero;stroke:none;font-family:TT107t00;-inkscape-font-specification:TT107t00"
         x="245.72 262.88205 269.48416 286.0462"
         y="-588.64001"
         sodipodi:role="line"
         id="tspan342"></tspan></text>
<text
       transform="scale(1,-1)"
       id="text354"
       x="245.72"
       y="-584.32001"><tspan
         style="font-size:10.09640026px;font-variant:normal;font-weight:normal;writing-mode:lr-tb;fill:#000000;fill-opacity:1;fill-rule:nonzero;stroke:none;font-family:TT107t00;-inkscape-font-specification:TT107t00"
         x="245.72 262.88702 269.48419 286.05115"
         y="-584.32001"
         sodipodi:role="line"
         id="tspan356"></tspan></text>
<g
       id="g5748"
       transform="matrix(0.77998456,0,0,1.6035175,60.092652,-154.09996)" /><path
       inkscape:connector-curvature="0"
       id="path1192"
       style="fill:#231f20;fill-opacity:1;fill-rule:evenodd;stroke:none"
       d="m 455.13747,395.65095 c 0.4696,2.02595 0.66908,3.48464 0.59636,4.36983 -0.0707,0.88934 -0.41559,1.33401 -1.03272,1.33401 -0.6213,0 -1.19688,-0.44675 -1.72051,-1.3444 -0.52363,-0.89142 -1.05973,-2.34595 -1.61245,-4.35944 l 3.76932,0 z m -3.97296,-0.80831 -0.0623,-0.24935 c -0.54649,-2.16933 -0.79376,-3.74854 -0.73974,-4.73762 0.052,-0.98908 0.40312,-1.4857 1.05558,-1.4857 0.65454,0 1.25713,0.50285 1.80985,1.51064 0.55065,1.0057 1.11999,2.66179 1.70596,4.96203 l -3.76932,0 z m -2.00102,0.0395 c 0.53818,2.14024 1.32778,3.8462 2.36673,5.11788 1.04103,1.27376 2.1444,1.91167 3.31011,1.91167 1.16154,0 1.94076,-0.63791 2.33764,-1.91167 0.39688,-1.27168 0.32415,-2.97764 -0.21403,-5.11788 -0.54025,-2.15479 -1.32985,-3.87529 -2.37088,-5.16359 -1.04103,-1.29038 -2.1444,-1.93453 -3.30595,-1.93453 -1.16986,0 -1.95739,0.64207 -2.35011,1.92622 -0.39272,1.28622 -0.31792,3.01088 0.22649,5.1719" /><path
       style="fill:none;stroke:#000000;stroke-width:1px;stroke-linecap:butt;stroke-linejoin:miter;stroke-opacity:1"
       d="m 345,656.5 0,7"
       id="path5736"
       inkscape:connector-curvature="0"
       transform="matrix(0.8,0,0,-0.8,0,842)"
       sodipodi:nodetypes="cc" /><path
       style="fill:none;stroke:#000000;stroke-width:1px;stroke-linecap:butt;stroke-linejoin:miter;stroke-opacity:1"
       d="m 350,652.5 0,15"
       id="path5738"
       inkscape:connector-curvature="0"
       transform="matrix(0.8,0,0,-0.8,0,842)" /><path
       style="fill:none;stroke:#000000;stroke-width:1px;stroke-linecap:butt;stroke-linejoin:miter;stroke-opacity:1"
       d="m 355,656.5 0,7"
       id="path5740"
       inkscape:connector-curvature="0"
       transform="matrix(0.8,0,0,-0.8,0,842)"
       sodipodi:nodetypes="cc" /><path
       style="fill:none;stroke:#000000;stroke-width:1px;stroke-linecap:butt;stroke-linejoin:miter;stroke-opacity:1"
       d="m 360,652.5 0,15"
       id="path5742"
       inkscape:connector-curvature="0"
       transform="matrix(0.8,0,0,-0.8,0,842)" /><path
       style="fill:none;stroke:#000000;stroke-width:1px;stroke-linecap:butt;stroke-linejoin:miter;stroke-opacity:1"
       d="m 365,656.5 0,7"
       id="path5744"
       inkscape:connector-curvature="0"
       transform="matrix(0.8,0,0,-0.8,0,842)"
       sodipodi:nodetypes="cc" /><path
       style="fill:none;stroke:#000000;stroke-width:1px;stroke-linecap:butt;stroke-linejoin:miter;stroke-opacity:1"
       d="m 370,652.5 0,15"
       id="path5746"
       inkscape:connector-curvature="0"
       transform="matrix(0.8,0,0,-0.8,0,842)" /><path
       style="fill:none;stroke:#000000;stroke-width:1;stroke-linecap:butt;stroke-linejoin:miter;stroke-miterlimit:4;stroke-opacity:1;stroke-dasharray:none;marker-end:url(#Arrow1Mend)"
       d="m 345,677.5 25,-35"
       id="path5752"
       inkscape:connector-curvature="0"
       transform="matrix(0.8,0,0,-0.8,0,842)"
       sodipodi:nodetypes="cc" /><path
       style="fill:none;stroke:#000000;stroke-width:1px;stroke-linecap:butt;stroke-linejoin:miter;stroke-opacity:1"
       d="m 345,660 -30,0 0,-47.5 40,0 2,-3 4,6 4,-6 4,6 4,-6 4,6 4,-6 4,6 2,-3 33,0 0,47.5 -50,0"
       id="path6966"
       inkscape:connector-curvature="0"
       transform="matrix(0.8,0,0,-0.8,0,842)"
       sodipodi:nodetypes="cccccccccccccccc" /><path
       style="fill:none;stroke:#000000;stroke-width:1px;stroke-linecap:butt;stroke-linejoin:miter;stroke-opacity:1"
       d="m 315,637.5 -35,0 0,-65 35,0"
       id="path6968"
       inkscape:connector-curvature="0"
       transform="matrix(0.8,0,0,-0.8,0,842)" /><path
       style="fill:none;stroke:#000000;stroke-width:1px;stroke-linecap:butt;stroke-linejoin:miter;stroke-opacity:1"
       d="m 335,582.5 -20,0 0,-20 50,0 c 6.66666,0 10,1.33334 10,3.33334 0,2 -10,5.33332 -10,3.33332 0,-2 10,1.33334 10,3.33334 0,2 -10,5.33334 -10,3.33334 0,-2 10,1.33332 10,3.33332 0,2 -3.33334,3.33334 -10,3.33334 l -25,0"
       id="path6970"
       inkscape:connector-curvature="0"
       transform="matrix(0.8,0,0,-0.8,0,842)"
       sodipodi:nodetypes="ccccccccccc" /><path
       sodipodi:nodetypes="cc"
       transform="matrix(0.8,0,0,-0.8,0,842)"
       inkscape:connector-curvature="0"
       id="path6972"
       d="m 340,579 0,7"
       style="fill:none;stroke:#000000;stroke-width:1px;stroke-linecap:butt;stroke-linejoin:miter;stroke-opacity:1" /><path
       transform="matrix(0.8,0,0,-0.8,0,842)"
       inkscape:connector-curvature="0"
       id="path6974"
       d="m 335,575 0,15"
       style="fill:none;stroke:#000000;stroke-width:1px;stroke-linecap:butt;stroke-linejoin:miter;stroke-opacity:1"
       sodipodi:nodetypes="cc" /><path
       style="fill:none;stroke:#000000;stroke-width:1px;stroke-linecap:butt;stroke-linejoin:miter;stroke-opacity:1;marker-start:url(#Arrow2Mstart)"
       d="m 381,605.5 0,-10 34,0 0,-8"
       id="path6980"
       inkscape:connector-curvature="0"
       transform="matrix(0.8,0,0,-0.8,0,842)"
       sodipodi:nodetypes="cccc" /><path
       style="fill:none;stroke:#000000;stroke-width:1px;stroke-linecap:butt;stroke-linejoin:miter;stroke-opacity:1"
       d="m 400,569.5 0,-12 85,0 0,12 m 0,6 0,12 -85,0 0,-12"
       id="path7356"
       inkscape:connector-curvature="0"
       transform="matrix(0.8,0,0,-0.8,0,842)"
       sodipodi:nodetypes="cccccccc" /><path
       style="fill:none;stroke:#000000;stroke-width:1;stroke-linecap:butt;stroke-linejoin:miter;stroke-miterlimit:4;stroke-opacity:1;stroke-dasharray:6, 6;stroke-dashoffset:0"
       d="m 375,572.5 227,0 m 0,0 -107,-105"
       id="path7548"
       inkscape:connector-curvature="0"
       transform="matrix(0.8,0,0,-0.8,0,842)"
       sodipodi:nodetypes="cccc" /><path
       style="fill:#000000;fill-opacity:1;stroke:none"
       d="m 600,542.5 0,60 20,0 0,-60 z"
       id="path7550"
       inkscape:connector-curvature="0"
       transform="matrix(0.8,0,0,-0.8,0,842)" /><path
       style="fill:none;stroke:#000000;stroke-width:1px;stroke-linecap:butt;stroke-linejoin:miter;stroke-opacity:1"
       d="m 490,472.5 10,-10 -20,-20 -10,10 z"
       id="path7564"
       inkscape:connector-curvature="0"
       transform="matrix(0.8,0,0,-0.8,0,842)" /><text
       xml:space="preserve"
       style="font-size:16px;font-style:normal;font-variant:normal;font-weight:normal;font-stretch:normal;text-align:start;line-height:125%;letter-spacing:0px;word-spacing:0px;writing-mode:lr-tb;text-anchor:start;fill:#000000;fill-opacity:1;stroke:none;font-family:Arial;-inkscape-font-specification:Arial"
       x="628.61792"
       y="570.25317"
       id="text7566"
       sodipodi:linespacing="125%"
       transform="matrix(0.8,0,0,-0.8,0,842)"><tspan
         sodipodi:role="line"
         id="tspan7568"
         x="628.61792"
         y="570.25317">Nickel</tspan><tspan
         sodipodi:role="line"
         x="628.61792"
         y="590.25317"
         id="tspan7570">Target</tspan></text>
<text
       xml:space="preserve"
       style="font-size:12.80000019px;font-style:normal;font-variant:normal;font-weight:normal;font-stretch:normal;text-align:center;line-height:125%;letter-spacing:0px;word-spacing:0px;writing-mode:lr-tb;text-anchor:middle;fill:#000000;fill-opacity:1;stroke:none;font-family:Arial;-inkscape-font-specification:Arial"
       x="435.38754"
       y="-372"
       id="text7572"
       sodipodi:linespacing="125%"
       transform="scale(1,-1)"><tspan
         sodipodi:role="line"
         x="435.38754"
         y="-372"
         id="tspan7576">Electron Beam</tspan></text>
<text
       xml:space="preserve"
       style="font-size:12.80000019px;font-style:normal;font-variant:normal;font-weight:normal;font-stretch:normal;text-align:center;line-height:125%;letter-spacing:0px;word-spacing:0px;writing-mode:lr-tb;text-anchor:middle;fill:#000000;fill-opacity:1;stroke:none;font-family:Arial;-inkscape-font-specification:Arial"
       x="468"
       y="-460"
       id="text7578"
       sodipodi:linespacing="125%"
       transform="scale(1,-1)"><tspan
         sodipodi:role="line"
         id="tspan7580"
         x="468"
         y="-460">Diffracted</tspan><tspan
         sodipodi:role="line"
         x="468"
         y="-444"
         id="tspan7582">electron beam</tspan></text>
<text
       xml:space="preserve"
       style="font-size:12.80000019px;font-style:normal;font-variant:normal;font-weight:normal;font-stretch:normal;text-align:center;line-height:125%;letter-spacing:0px;word-spacing:0px;writing-mode:lr-tb;text-anchor:middle;fill:#000000;fill-opacity:1;stroke:none;font-family:Arial;-inkscape-font-specification:Arial"
       x="352"
       y="-504"
       id="text7584"
       sodipodi:linespacing="125%"
       transform="scale(1,-1)"><tspan
         sodipodi:role="line"
         id="tspan7586"
         x="352"
         y="-504">Movable</tspan><tspan
         sodipodi:role="line"
         x="352"
         y="-488"
         id="tspan7600">Detector</tspan></text>
<path
       style="fill:none;stroke:#000000;stroke-width:1;stroke-linecap:butt;stroke-linejoin:miter;stroke-miterlimit:4;stroke-opacity:1;stroke-dasharray:none;stroke-dashoffset:0"
       d="m 390,602.5 290,0 0,-200 -290,0 z"
       id="path7590"
       inkscape:connector-curvature="0"
       transform="matrix(0.8,0,0,-0.8,0,842)" /><text
       xml:space="preserve"
       style="font-size:12.80000019px;font-style:normal;font-variant:normal;font-weight:normal;font-stretch:normal;text-align:center;line-height:125%;letter-spacing:0px;word-spacing:0px;writing-mode:lr-tb;text-anchor:middle;fill:#000000;fill-opacity:1;stroke:none;font-family:Arial;-inkscape-font-specification:Arial"
       x="280"
       y="-456"
       id="text7592"
       sodipodi:linespacing="125%"
       transform="scale(1,-1)"><tspan
         sodipodi:role="line"
         id="tspan7594"
         x="280"
         y="-456">Vacuum</tspan><tspan
         sodipodi:role="line"
         x="280"
         y="-440"
         id="tspan7596">Chamber</tspan></text>
<path
       sodipodi:type="arc"
       style="fill:none;stroke:#000000;stroke-width:2;stroke-miterlimit:4;stroke-opacity:1;stroke-dasharray:none"
       id="path7598"
       sodipodi:cx="580"
       sodipodi:cy="557.5"
       sodipodi:rx="19.765448"
       sodipodi:ry="20.064148"
       d="m 599.76208,557.87044 c -0.12796,7.03389 -3.87568,13.48593 -9.87708,17.00429"
       transform="matrix(-0.79964989,-0.02366554,-0.02366554,0.79964989,952.84111,-47.922721)"
       sodipodi:start="0.018464066"
       sodipodi:end="1.0470644"
       sodipodi:open="true" /><path
       transform="matrix(130.22434,0,0,-130.22434,-77913.459,74937.439)"
       style="fill:none;stroke:#000000;stroke-width:0.0078125;stroke-linecap:butt;stroke-linejoin:miter;stroke-miterlimit:4;stroke-opacity:1;stroke-dasharray:0.0078125, 0.0078125;stroke-dashoffset:0"
       d="m 601.31761,571.76901 c 0.0791,-0.0738 0.17011,-0.135 0.2699,-0.18024 m -0.52448,0.56104 c 0.0444,-0.11886 0.11085,-0.22699 0.19429,-0.31946"
       id="path7602"
       inkscape:connector-curvature="0"
       sodipodi:nodetypes="cccc" /></g></svg>