<svg xmlns="http://www.w3.org/2000/svg" viewBox="0 0 469 400"><title>Zeichenfläche 1</title><g id="Ebene_1" data-name="Ebene 1"><circle cx="187.01" cy="200.56" r="167.68" style="fill:#575756;stroke:#1d1d1b;stroke-miterlimit:10;stroke-width:3px"/><circle cx="187.01" cy="200.56" r="149.28" style="fill:#fff;stroke:#1d1d1b;stroke-miterlimit:10;stroke-width:3px"/></g><g id="Ebene_3" data-name="Ebene 3"><rect x="306.5" y="188.81" width="65" height="23.5" style="fill:#fff"/></g><g id="Ebene_2" data-name="Ebene 2"><line x1="448" y1="183" x2="58.81" y2="244.17" style="fill:none;stroke:#1d71b8;stroke-miterlimit:10;stroke-width:2px"/><polygon points="59.54 238.5 51.01 245.4 61.24 249.34 59.54 238.5" style="fill:#1d71b8"/><line x1="49.34" y1="244.01" x2="292.15" y2="115.57" style="fill:none;stroke:#1d71b8;stroke-miterlimit:10;stroke-width:2px"/><polygon points="293.3 121.17 299.13 111.88 288.17 111.47 293.3 121.17" style="fill:#1d71b8"/><line x1="301.58" y1="112.69" x2="125.01" y2="321.18" style="fill:none;stroke:#1d71b8;stroke-miterlimit:10;stroke-width:2px"/><polygon points="121.86 316.41 119.91 327.2 130.23 323.5 121.86 316.41" style="fill:#1d71b8"/><line x1="117" y1="327.33" x2="178.17" y2="63.52" style="fill:none;stroke:#1d71b8;stroke-miterlimit:10;stroke-width:2px"/><polygon points="183.15 66.33 179.95 55.83 172.46 63.85 183.15 66.33" style="fill:#1d71b8"/><line x1="182.5" y1="55.52" x2="275.08" y2="306.21" style="fill:none;stroke:#1d71b8;stroke-miterlimit:10;stroke-width:2px"/><polygon points="269.38 306.6 277.81 313.61 279.67 302.8 269.38 306.6" style="fill:#1d71b8"/><line x1="275.57" y1="315.13" x2="55.67" y2="158.58" style="fill:none;stroke:#1d71b8;stroke-miterlimit:10;stroke-width:2px"/><polygon points="60.15 155.04 49.23 154 53.79 163.98 60.15 155.04" style="fill:#1d71b8"/><line x1="49.03" y1="151.82" x2="319.57" y2="166.31" style="fill:none;stroke:#1d71b8;stroke-miterlimit:10;stroke-width:2px"/><polygon points="317.67 171.7 327.45 166.73 318.26 160.74 317.67 171.7" style="fill:#1d71b8"/><line x1="328.36" y1="169.16" x2="186.81" y2="264.1" style="fill:none;stroke:#1d71b8;stroke-miterlimit:10;stroke-width:2px"/><polygon points="185.08 258.65 180.25 268.5 191.19 267.76 185.08 258.65" style="fill:#1d71b8"/></g></svg>